<svg viewBox="0 0 32 32" xml:space="preserve" xmlns="http://www.w3.org/2000/svg"><g fill="#9932cc" class="fill-121313"><path d="M16 0C7.164 0 0 7.163 0 16c0 8.836 7.164 16 16 16 8.837 0 16-7.164 16-16 0-8.837-7.163-16-16-16zm0 30C8.268 30 2 23.732 2 16S8.268 2 16 2s14 6.268 14 14-6.268 14-14 14z"></path><path d="m22.285 17.393-5.275 5.2V7c0-.552-.452-1-1.01-1s-1.01.448-1.01 1v15.593l-5.275-5.2a1.018 1.018 0 0 0-1.428 0 .994.994 0 0 0 0 1.414l6.999 6.899c.187.187.45.294.714.294.263 0 .526-.108.714-.293l6.999-6.899a.993.993 0 0 0 0-1.414 1.017 1.017 0 0 0-1.428-.001z"></path></g></svg>