<svg viewBox="0 0 512 512" xml:space="preserve" xmlns="http://www.w3.org/2000/svg"><g fill="#9932cc" class="fill-303a3f"><path d="M434.5 72.3V412c0 33.6-27.5 61.1-61 61.1H126.7c-5.6 0-11-1-16.2-2.5 7.8 23.7 30 41.1 56.2 41.1h249.9c32.7 0 59.5-26.8 59.5-59.5V128.8c0-26.5-17.6-48.8-41.6-56.5z"></path><path d="M345.2 0H95.4C62.7 0 35.9 26.8 35.9 59.5V383c0 32.7 26.8 59.5 59.5 59.5h249.9c32.7 0 59.5-26.8 59.5-59.5V59.5C404.7 26.8 378 0 345.2 0zm19 349.8c0 25.7-21.1 46.8-46.8 46.8H120.9c-25.7 0-46.8-21.1-46.8-46.8V95.4c0-25.7 21.1-46.8 46.8-46.8h196.6c25.7 0 46.8 21.1 46.8 46.8v254.4z"></path><path d="M319.8 117.5H190.5c-5.4 0-9.8-4.4-9.8-9.8v-.7c0-5.4 4.4-9.8 9.8-9.8h129.3c5.4 0 9.8 4.4 9.8 9.8v.7c.1 5.4-4.4 9.8-9.8 9.8zM319.8 175.2H120.4c-5.4 0-9.8-4.4-9.8-9.8v-.7c0-5.4 4.4-9.8 9.8-9.8h199.5c5.4 0 9.8 4.4 9.8 9.8v.7c0 5.3-4.5 9.8-9.9 9.8zM319.8 232.8H120.4c-5.4 0-9.8-4.4-9.8-9.8v-.7c0-5.4 4.4-9.8 9.8-9.8h199.5c5.4 0 9.8 4.4 9.8 9.8v.7c0 5.4-4.5 9.8-9.9 9.8zM319.8 290.5H120.4c-5.4 0-9.8-4.4-9.8-9.8v-.7c0-5.4 4.4-9.8 9.8-9.8h199.5c5.4 0 9.8 4.4 9.8 9.8v.7c0 5.4-4.5 9.8-9.9 9.8zM319.8 348.2H120.4c-5.4 0-9.8-4.4-9.8-9.8v-.7c0-5.4 4.4-9.8 9.8-9.8h199.5c5.4 0 9.8 4.4 9.8 9.8v.7c0 5.3-4.5 9.8-9.9 9.8z"></path></g></svg>