<svg viewBox="0 0 512 512" xml:space="preserve" xmlns="http://www.w3.org/2000/svg"><path d="M400.5.2h-289C73.7.2 42.7 31.2 42.7 69v374c0 37.8 31 68.8 68.8 68.8h289.1c37.8 0 68.8-31 68.8-68.8V69c-.1-37.8-31-68.8-68.9-68.8zm22 404.5c0 29.8-24.4 54.1-54.1 54.1H141c-29.8 0-54.1-24.4-54.1-54.1V110.5c0-29.8 24.4-54.1 54.1-54.1h227.4c29.8 0 54.1 24.4 54.1 54.1v294.2z" fill="#9932cc" class="fill-303a3f"></path><g fill="#9932cc" class="fill-303a3f"><path d="M388.1 253.7v5.9c0 11.3-9.2 20.5-20.5 20.5H211.4c-11.3 0-20.5-9.2-20.5-20.5v-5.9c0-11.3 9.2-20.5 20.5-20.5h156.2c11.3 0 20.5 9.2 20.5 20.5zM388.1 343.1v5.9c0 11.3-9.2 20.5-20.5 20.5H211.4c-11.3 0-20.5-9.2-20.5-20.5v-5.9c0-11.3 9.2-20.5 20.5-20.5h156.2c11.3.1 20.5 9.3 20.5 20.5zM388.1 162.5v5.9c0 11.3-9.2 20.5-20.5 20.5H211.4c-11.3 0-20.5-9.2-20.5-20.5v-5.9c0-11.3 9.2-20.5 20.5-20.5h156.2c11.3 0 20.5 9.2 20.5 20.5z"></path><circle cx="147.8" cy="165.8" r="23.8"></circle><circle cx="147.8" cy="253.6" r="23.8"></circle><circle cx="147.8" cy="346.1" r="23.8"></circle></g></svg>