<svg xmlns="http://www.w3.org/2000/svg" enable-background="new 0 0 32 32" viewBox="0 0 32 32" id="designtools"><path d="M27.4,12.2C27.5,12.2,27.5,12.2,27.4,12.2L31,3c0.1-0.2,0-0.4-0.1-0.5c-0.1-0.1-0.4-0.2-0.5-0.1l-9.2,3.5c0,0,0,0,0,0
	C21.1,5.9,21,5.9,21,6l-6.4,6.4c-0.7-0.4-1.3-0.7-1.9-1c0-0.3,0-0.6,0-1l0-0.2c-0.1-3.2-2.2-5.6-5.3-6c-0.4,0-0.8,0-1.2-0.1
	c-0.6,0-1.1,0-1.6-0.1C3.4,3.7,1.9,2.5,2.2,1.1c0,0,0-0.1,0-0.1c0-0.2-0.2-0.4-0.4-0.5C1.5,0.5,1.3,0.7,1.2,0.9
	C0.8,3.2,0.9,5.9,1.7,8.1c1.2,3.5,4.1,5.8,8.1,6.2c0,0,0,0,0.1,0c0.1,0,0.2,0,0.3-0.1c0.2,0.5,0.5,1.1,0.9,1.7l-4.8,4.8c0,0,0,0,0,0
	s0,0,0,0L4,23l-1.4,1.4c-1,1-1,2.6,0,3.5l0,0l2.8,2.8c0.5,0.5,1.1,0.7,1.8,0.7c0,0,0,0,0,0s0,0,0,0c0,0,0.1,0,0.1,0
	c0.6,0,1.2-0.3,1.7-0.7l7.7-7.8c0.2,0.2,0.4,0.4,0.6,0.6c2.5,2.5,5.2,4.7,7.4,6.1c1.6,1,2.9,1.6,3.8,1.6c0.4,0,0.8-0.1,1.1-0.4
	c1.8-1.8-3.3-8.3-7.3-12.3c-0.2-0.2-0.4-0.4-0.6-0.6l5.7-5.7C27.4,12.3,27.4,12.2,27.4,12.2z M29.7,3.7L29,5.3c-0.4-0.2-0.8-0.6-1-1
	L29.7,3.7z M21.1,10.1C21.1,10.1,21.1,10.1,21.1,10.1c0.3-0.3,0.6-0.4,1-0.4h1c0.3,0,0.5,0.2,0.5,0.5v1c0,0.4-0.2,0.8-0.4,1.1
	L19.5,16c-0.8-0.7-1.6-1.3-2.3-1.9L21.1,10.1z M20.8,8.3c0,0.4-0.1,0.8-0.4,1c0,0,0,0,0,0l-4.1,4.1c-0.3-0.2-0.6-0.4-0.8-0.6
	l5.3-5.3V8.3z M9.7,13.3c-3.5-0.5-6-2.5-7.1-5.5C2.2,6.4,2,4.9,2,3.5C2.6,4.2,3.5,4.8,4.4,5C5,5.1,5.7,5.1,6.3,5.1
	c0.4,0,0.8,0,1.1,0c2.5,0.3,4.3,2.3,4.4,5l0,0.2c0,0.5,0,0.8,0,0.8L9.7,13.3z M12.2,12.2c0.7,0.3,1.4,0.6,2.2,1.2
	c0.5,0.3,1,0.6,1.6,1.1c0,0,0,0,0.1,0c0.5,0.4,1,0.8,1.6,1.2c-0.6,1.4-1.8,2.6-3.2,3.2c-0.4-0.5-0.9-1.1-1.2-1.6c0,0,0,0,0-0.1
	c-0.4-0.6-0.8-1.1-1.1-1.6c-0.5-0.8-0.9-1.6-1.2-2.2L12.2,12.2z M12.8,18.4c0.6,0.7,1.2,1.5,1.9,2.3l-3.9,3.9l-2.1-2.1L12.8,18.4z
	 M11.6,16.8c0.2,0.3,0.4,0.5,0.6,0.8L8,21.8l-0.7-0.7L11.6,16.8z M8.2,30c-0.6,0.6-1.5,0.6-2.1,0l-2.8-2.8c0,0,0,0,0,0
	C3.2,27,3,26.9,3,26.7c0,0,0,0,0,0c-0.1-0.2-0.1-0.3-0.1-0.5c0,0,0,0,0,0c0,0,0,0,0,0c0-0.2,0-0.4,0.1-0.5c0,0,0,0,0,0
	c0.1-0.2,0.2-0.3,0.3-0.5c0,0,0,0,0,0l1.3-1.3l0.4-0.4l4.9,4.9L8.2,30z M10.7,27.6l-5-5l0.8-0.8l1,1c0,0,0,0,0,0l2.8,2.8
	c0,0,0,0,0,0l1,1L10.7,27.6z M11.5,25.3l3.8-3.8c0.2,0.2,0.4,0.5,0.7,0.7l-3.8,3.8L11.5,25.3z M28.8,30.1c-0.2,0.2-1.2,0.2-3.6-1.3
	c-2.2-1.4-4.7-3.5-7.2-6c-0.3-0.3-0.6-0.6-0.9-0.9c-0.5-0.5-0.9-1-1.3-1.5c-0.2-0.2-0.4-0.4-0.6-0.7c1.4-0.7,2.6-1.9,3.3-3.3
	c0.2,0.2,0.4,0.3,0.6,0.5c0,0,0,0,0,0c0,0,0,0,0,0c0,0,0,0,0,0c0.5,0.4,1,0.9,1.5,1.3c0.3,0.3,0.6,0.6,0.9,0.9
	C27.5,25.2,29.4,29.5,28.8,30.1z M21,17.3c-0.2-0.2-0.5-0.5-0.7-0.7l3.7-3.7c0,0,0,0,0.1-0.1c0.3-0.3,0.7-0.4,1.1-0.4h0.8L21,17.3z
	 M25,11.5c-0.1,0-0.2,0-0.4,0c0-0.1,0-0.2,0-0.4v-1c0-0.8-0.7-1.5-1.5-1.5h-1c-0.1,0-0.2,0-0.4,0c0-0.1,0-0.2,0-0.4V6.7l5.2-2
	c0.3,0.7,0.9,1.3,1.6,1.6l-2,5.2H25z" fill="#9932cc" class="color000000 svgShape"></path></svg>