<svg xmlns="http://www.w3.org/2000/svg" xmlns:xlink="http://www.w3.org/1999/xlink" viewBox="0 0 1080 1080" width="1080" height="1080" preserveAspectRatio="xMidYMid meet" style="width: 100%; height: 100%; transform: translate3d(0px, 0px, 0px); content-visibility: visible;"><defs><clipPath id="__lottie_element_3811"><rect width="1080" height="1080" x="0" y="0"/></clipPath><symbol id="__lottie_element_3818"><g><g transform="matrix(0.9300000071525574,0,0,0.9300000071525574,121.94650268554688,251.71649169921875)" opacity="1" style="display: block;"><g opacity="1" transform="matrix(1,0,0,1,446.4930114746094,310.7510070800781)"><path fill="rgb(153,50,204)" fill-opacity="1" d=" M413.56298828125,-225.9739990234375 C401.4909973144531,-257.27398681640625 379.3089904785156,-277.75 348.0589904785156,-288.9739990234375 C294.6969909667969,-308.197998046875 -168.29400634765625,-310.5 -318.0790100097656,-294.3810119628906 C-347.21099853515625,-291.2510070800781 -371.6619873046875,-278.1719970703125 -390.66900634765625,-255.81900024414062 C-446.2430114746094,-190.38499450683594 -437.7030029296875,141.73800659179688 -408.8399963378906,221.14100646972656 C-396.99798583984375,253.6490020751953 -374.927001953125,275.1520080566406 -342.1319885253906,285.9049987792969 C-268.6239929199219,310.1400146484375 306.5639953613281,310.5 362.4129943847656,281.1910095214844 C383.1109924316406,270.343994140625 399.3890075683594,255.21200561523438 409.3760070800781,233.7729949951172 C446.2430114746094,154.7010040283203 445.14898681640625,-143.90499877929688 413.56298828125,-225.9739990234375z"/></g></g></g></symbol><symbol id="__lottie_element_3821"><g><g transform="matrix(1,0,0,1,90.69198608398438,229.9639892578125)" opacity="1" style="display: block;"><g opacity="1" transform="matrix(1,0,0,1,446.4930114746094,310.7510070800781)"><path fill="rgb(153,50,204)" fill-opacity="1" d=" M413.56298828125,-225.9739990234375 C401.4909973144531,-257.27398681640625 379.3089904785156,-277.75 348.0589904785156,-288.9739990234375 C294.6969909667969,-308.197998046875 -168.29400634765625,-310.5 -318.0790100097656,-294.3810119628906 C-347.21099853515625,-291.2510070800781 -371.6619873046875,-278.1719970703125 -390.66900634765625,-255.81900024414062 C-446.2430114746094,-190.38499450683594 -437.7030029296875,141.73800659179688 -408.8399963378906,221.14100646972656 C-396.99798583984375,253.6490020751953 -374.927001953125,275.1520080566406 -342.1319885253906,285.9049987792969 C-268.6239929199219,310.1400146484375 306.5639953613281,310.5 362.4129943847656,281.1910095214844 C383.1109924316406,270.343994140625 399.3890075683594,255.21200561523438 409.3760070800781,233.7729949951172 C446.2430114746094,154.7010040283203 445.14898681640625,-143.90499877929688 413.56298828125,-225.9739990234375z"/></g></g></g></symbol><mask id="__lottie_element_3818_1" mask-type="alpha"><use xmlns:ns1="http://www.w3.org/1999/xlink" ns1:href="#__lottie_element_3818"/></mask><mask id="__lottie_element_3821_1" mask-type="alpha"><use xmlns:ns2="http://www.w3.org/1999/xlink" ns2:href="#__lottie_element_3821"/></mask></defs><g clip-path="url(#__lottie_element_3811)"><g transform="matrix(1,0,0,1,90.69198608398438,229.9639892578125)" opacity="1" style="display: block;"><g opacity="1" transform="matrix(1,0,0,1,446.4930114746094,310.7510070800781)"><path fill="rgb(153,50,204)" fill-opacity="1" d=" M413.56298828125,-225.9739990234375 C401.4909973144531,-257.27398681640625 379.3089904785156,-277.75 348.0589904785156,-288.9739990234375 C294.6969909667969,-308.197998046875 -168.29400634765625,-310.5 -318.0790100097656,-294.3810119628906 C-347.21099853515625,-291.2510070800781 -371.6619873046875,-278.1719970703125 -390.66900634765625,-255.81900024414062 C-446.2430114746094,-190.38499450683594 -437.7030029296875,141.73800659179688 -408.8399963378906,221.14100646972656 C-396.99798583984375,253.6490020751953 -374.927001953125,275.1520080566406 -342.1319885253906,285.9049987792969 C-268.6239929199219,310.1400146484375 306.5639953613281,310.5 362.4129943847656,281.1910095214844 C383.1109924316406,270.343994140625 399.3890075683594,255.21200561523438 409.3760070800781,233.7729949951172 C446.2430114746094,154.7010040283203 445.14898681640625,-143.90499877929688 413.56298828125,-225.9739990234375z"/></g></g><g transform="matrix(0.27032271027565,0,0,0.27032271027565,510.38775634765625,514.4951171875)" opacity="1" style="display: none;"><g opacity="1" transform="matrix(1,0,0,1,34.861000061035156,123.94400024414062)"><path fill="rgb(255,255,255)" fill-opacity="1" d=" M34.611000061035156,123.69400024414062 C34.611000061035156,123.69400024414062 -34.611000061035156,123.69400024414062 -34.611000061035156,123.69400024414062 C-34.611000061035156,123.69400024414062 -34.611000061035156,-123.69400024414062 -34.611000061035156,-123.69400024414062 C-34.611000061035156,-123.69400024414062 34.611000061035156,-123.69400024414062 34.611000061035156,-123.69400024414062 C34.611000061035156,-123.69400024414062 34.611000061035156,123.69400024414062 34.611000061035156,123.69400024414062z"/></g><g opacity="1" transform="matrix(1,0,0,1,184.2270050048828,123.94400024414062)"><path fill="rgb(255,255,255)" fill-opacity="1" d=" M34.611000061035156,123.69400024414062 C34.611000061035156,123.69400024414062 -34.611000061035156,123.69400024414062 -34.611000061035156,123.69400024414062 C-34.611000061035156,123.69400024414062 -34.611000061035156,-123.69400024414062 -34.611000061035156,-123.69400024414062 C-34.611000061035156,-123.69400024414062 34.611000061035156,-123.69400024414062 34.611000061035156,-123.69400024414062 C34.611000061035156,-123.69400024414062 34.611000061035156,123.69400024414062 34.611000061035156,123.69400024414062z"/></g></g><g mask="url(#__lottie_element_3818_1)" style="display: block;"><g transform="matrix(0.9300001263618469,0,0,0.9300001263618469,440.0660095214844,413.5987854003906)" opacity="1"><g opacity="1" transform="matrix(1,0,0,1,135.14500427246094,140.58900451660156)"><path fill="rgb(255,255,255)" fill-opacity="1" d=" M-134.89500427246094,-140.33900451660156 C-134.89500427246094,-140.33900451660156 -134.89500427246094,140.33900451660156 -134.89500427246094,140.33900451660156 C-134.89500427246094,140.33900451660156 134.89500427246094,0.4339999854564667 134.89500427246094,0.4339999854564667 C134.89500427246094,0.4339999854564667 -134.89500427246094,-140.33900451660156 -134.89500427246094,-140.33900451660156z"/></g></g></g><g mask="url(#__lottie_element_3821_1)" style="display: none;"><g transform="matrix(1.0000030994415283,0,0,1.0000030994415283,430.45458984375,424.05615234375)" opacity="1"><g opacity="1" transform="matrix(1,0,0,1,34.861000061035156,123.94400024414062)"><path fill="rgb(255,255,255)" fill-opacity="1" d=" M34.611000061035156,123.69400024414062 C34.611000061035156,123.69400024414062 -34.611000061035156,123.69400024414062 -34.611000061035156,123.69400024414062 C-34.611000061035156,123.69400024414062 -34.611000061035156,-123.69400024414062 -34.611000061035156,-123.69400024414062 C-34.611000061035156,-123.69400024414062 34.611000061035156,-123.69400024414062 34.611000061035156,-123.69400024414062 C34.611000061035156,-123.69400024414062 34.611000061035156,123.69400024414062 34.611000061035156,123.69400024414062z"/></g><g opacity="1" transform="matrix(1,0,0,1,184.2270050048828,123.94400024414062)"><path fill="rgb(255,255,255)" fill-opacity="1" d=" M34.611000061035156,123.69400024414062 C34.611000061035156,123.69400024414062 -34.611000061035156,123.69400024414062 -34.611000061035156,123.69400024414062 C-34.611000061035156,123.69400024414062 -34.611000061035156,-123.69400024414062 -34.611000061035156,-123.69400024414062 C-34.611000061035156,-123.69400024414062 34.611000061035156,-123.69400024414062 34.611000061035156,-123.69400024414062 C34.611000061035156,-123.69400024414062 34.611000061035156,123.69400024414062 34.611000061035156,123.69400024414062z"/></g></g></g></g></svg>