<svg viewBox="0 0 30 30" xml:space="preserve" xmlns="http://www.w3.org/2000/svg" enableBackground="new 0 0 30 30"><circle cx="20" cy="10" r="1" fill="#9932cc" class="fill-000000"></circle><path d="M13 19a2 2 0 1 1-3.999.001A2 2 0 0 1 13 19zm9-.335v.67a.499.499 0 0 1-.408.491l-.988.185c-.411.077-.714.406-.797.816a8.83 8.83 0 0 1-.264 1.002c-.13.396-.032.829.284 1.1l.759.651a.5.5 0 0 1 .107.63l-.335.58a.5.5 0 0 1-.599.222l-.953-.335c-.393-.138-.818-.006-1.096.305-.229.257-.473.5-.73.73-.311.278-.443.702-.305 1.096l.335.953a.5.5 0 0 1-.222.599l-.58.335a.502.502 0 0 1-.63-.107l-.651-.759c-.271-.316-.704-.414-1.1-.284-.326.107-.66.195-1.002.264-.41.083-.739.386-.816.797l-.185.988a.495.495 0 0 1-.489.406h-.67a.499.499 0 0 1-.491-.408l-.185-.988c-.077-.411-.406-.714-.816-.797a8.83 8.83 0 0 1-1.002-.264c-.396-.13-.829-.032-1.1.284l-.651.759a.5.5 0 0 1-.63.107l-.58-.335a.5.5 0 0 1-.222-.599l.335-.953c.138-.394.006-.818-.305-1.096a9.142 9.142 0 0 1-.73-.73c-.278-.311-.702-.443-1.096-.305l-.952.337a.5.5 0 0 1-.599-.222l-.335-.58a.502.502 0 0 1 .107-.63l.759-.651c.316-.271.414-.704.284-1.1a8.775 8.775 0 0 1-.264-1.002c-.083-.41-.386-.739-.797-.816l-.988-.185A.499.499 0 0 1 0 19.335v-.67c0-.241.171-.447.408-.491l.988-.185c.411-.077.714-.406.797-.816a8.83 8.83 0 0 1 .264-1.002c.13-.396.032-.829-.284-1.1l-.759-.651a.5.5 0 0 1-.107-.63l.335-.58a.5.5 0 0 1 .599-.222l.953.335c.394.138.818.006 1.096-.305.229-.257.473-.5.73-.73.311-.278.443-.702.305-1.096l-.337-.952a.5.5 0 0 1 .222-.599l.58-.335a.502.502 0 0 1 .63.107l.651.759c.271.316.704.414 1.1.284a8.83 8.83 0 0 1 1.002-.264c.41-.083.739-.386.816-.797l.185-.988A.499.499 0 0 1 10.665 8h.67c.241 0 .447.171.491.408l.185.988c.077.411.406.714.816.797a8.83 8.83 0 0 1 1.002.264c.396.13.829.032 1.1-.284l.651-.759a.5.5 0 0 1 .63-.107l.58.335a.5.5 0 0 1 .222.599l-.335.952c-.138.394-.006.818.305 1.096.257.229.5.473.73.73.278.311.702.443 1.096.305l.953-.335a.5.5 0 0 1 .599.222l.335.58a.502.502 0 0 1-.107.63l-.759.651c-.316.271-.414.704-.284 1.1.107.326.195.661.264 1.002.083.41.386.739.797.816l.988.185a.497.497 0 0 1 .406.49zM17 19a6 6 0 1 0-12 0 6 6 0 0 0 12 0z" fill="#9932cc" class="fill-000000"></path><path d="m29.592 9.174-1.176-.221a.758.758 0 0 1-.596-.604 8 8 0 0 0-.221-.835.758.758 0 0 1 .215-.818l.906-.776a.5.5 0 0 0 .107-.63l-.335-.58a.5.5 0 0 0-.599-.222l-1.128.397a.757.757 0 0 1-.816-.223 8.031 8.031 0 0 0-.612-.612.757.757 0 0 1-.223-.816l.397-1.128a.5.5 0 0 0-.222-.599l-.58-.335a.502.502 0 0 0-.63.107l-.777.906a.758.758 0 0 1-.818.215 8 8 0 0 0-.835-.221.76.76 0 0 1-.604-.596L20.824.407A.495.495 0 0 0 20.335 0h-.67a.499.499 0 0 0-.491.408l-.221 1.176a.758.758 0 0 1-.604.596 8 8 0 0 0-.835.221.758.758 0 0 1-.818-.215l-.776-.906a.5.5 0 0 0-.63-.107l-.58.335a.5.5 0 0 0-.222.599l.397 1.128a.757.757 0 0 1-.223.816 8.031 8.031 0 0 0-.612.612.757.757 0 0 1-.816.223l-1.128-.397a.5.5 0 0 0-.599.222l-.335.58a.502.502 0 0 0 .107.63l.098.084a2.498 2.498 0 0 1 2.414 2.034l.06.318.209-.245a2.493 2.493 0 0 1 1.767-.861A4.994 4.994 0 0 1 20 5a5 5 0 0 1 5 5 4.988 4.988 0 0 1-2.251 4.171 2.488 2.488 0 0 1-.86 1.766l-.246.21.318.06a2.498 2.498 0 0 1 2.034 2.414l.084.098a.5.5 0 0 0 .63.107l.58-.335a.5.5 0 0 0 .222-.599l-.397-1.128a.757.757 0 0 1 .223-.816c.215-.193.419-.397.612-.612a.757.757 0 0 1 .816-.223l1.128.397a.5.5 0 0 0 .599-.222l.335-.58a.502.502 0 0 0-.107-.63l-.906-.777a.758.758 0 0 1-.215-.818 8 8 0 0 0 .221-.835.76.76 0 0 1 .596-.604l1.176-.221a.493.493 0 0 0 .408-.488v-.67a.499.499 0 0 0-.408-.491z" fill="#9932cc" class="fill-000000"></path></svg>